<svg width="72" height="65" viewBox="0 0 72 65" fill="none" xmlns="http://www.w3.org/2000/svg">
<path d="M36.0577 6.71543e-06C36.0054 6.71543e-06 35.9509 0.00238704 35.8986 0.00397399C35.1676 0.0211657 34.4452 0.21821 33.8035 0.576846C33.0702 0.986798 32.4483 1.60438 32.0303 2.34437L0.61615 57.9666C0.216148 58.6749 0 59.4932 0 60.3112C0 61.129 0.216148 61.9473 0.61615 62.6556C1.01615 63.3639 1.60102 63.9611 2.29376 64.3703C2.98676 64.7794 3.7875 64.9997 4.5875 65H67.4125C68.2128 65 69.0136 64.7792 69.7062 64.3703C70.3992 63.9611 70.9838 63.3639 71.3839 62.6556C71.7839 61.9473 72 61.129 72 60.3112C72 59.4934 71.7839 58.6751 71.3839 57.9666L39.9697 2.34437C39.2054 0.990474 37.7403 0.0774983 36.2129 0.00396727C36.1608 0.00158693 36.1103 0 36.0579 0L36.0577 6.71543e-06ZM35.9265 14.7942C37.1986 14.7757 38.4733 15.2806 39.3731 16.1595C40.2731 17.0383 40.7866 18.2806 40.7684 19.5238V38.7021C40.7864 39.9336 40.2817 41.165 39.3968 42.042C38.5119 42.919 37.258 43.4316 35.9979 43.4316C34.7375 43.4316 33.4877 42.919 32.6028 42.042C31.7179 41.165 31.2096 39.9335 31.2272 38.7021V19.5238C31.2095 18.3039 31.709 17.0834 32.5788 16.2082C33.4486 15.333 34.678 14.8125 35.9262 14.7942H35.9265ZM35.9981 46.9468C38.846 46.9468 41.1582 49.306 41.1582 52.2169C41.1582 55.1275 38.846 57.487 35.9981 57.487C33.1502 57.487 30.8418 55.1278 30.8418 52.2169C30.8418 49.3063 33.1501 46.9468 35.9981 46.9468Z" fill="url(#paint0_linear_41_10684)"/>
<defs>
<linearGradient id="paint0_linear_41_10684" x1="36" y1="0" x2="36" y2="65" gradientUnits="userSpaceOnUse">
<stop stop-color="#F84752"/>
<stop offset="1" stop-color="#E94766"/>
</linearGradient>
</defs>
</svg>
